<?xml version="1.0" encoding="utf-8"?>
<!-- Generator: Adobe Illustrator 30.2.1, SVG Export Plug-In . SVG Version: 9.03 Build 0)  -->
<svg version="1.1" xmlns="http://www.w3.org/2000/svg" xmlns:xlink="http://www.w3.org/1999/xlink" x="0px" y="0px"
	 viewBox="0 0 1024 1024" style="enable-background:new 0 0 1024 1024;" xml:space="preserve">
<g>
</g>
<g id="_x31___x2013__Layer">
	<g>
		
			<linearGradient id="SVGID_1_" gradientUnits="userSpaceOnUse" x1="511.6100159" y1="869.8240356" x2="511.6100159" y2="155.2838287">
			<stop  offset="0" style="stop-color:#FF17FF"/>
			<stop  offset="0.2649304" style="stop-color:#C251FA"/>
			<stop  offset="0.8739178" style="stop-color:#2BE0ED"/>
			<stop  offset="1" style="stop-color:#0BFFEA"/>
		</linearGradient>
		<path style="fill:url(#SVGID_1_);" d="M685.3624878,155.4431763c26.5234985,0,99.2695312,12.0595856,150.0931396,50.6669464
			c11.6469116,8.8474121,21.0303345,18.0813141,29.9377441,29.8221741
			c33.3443604,43.9509735,27.5847778,104.5533905-8.8833618,146.2238007
			c-24.1296387,27.5718384-57.0269165,45.0609436-92.1810913,53.109375
			c12.9525146-18.9548645,23.6987305-37.8308411,19.746582-60.2135925
			c-9.1696167-51.9313049-87.1702271-49.2085571-127.696228-40.2840881
			c-77.1584473,16.9914551-148.3640747,55.576416-202.2818298,112.895752
			c-26.3357849,27.9972839-46.0464478,58.2218323-56.8884583,93.7136536
			c-18.9351196,61.9849243,5.3032532,123.7915649,62.3509521,154.2026978
			c35.282959,18.8087769,72.7438965,27.8221436,114.0873413,29.7530518
			c117.276123,5.4771729,229.8538818-30.0386963,325.6884766-100.8302612
			c-15.2442627,32.5670166-38.189209,59.3818359-63.1350708,85.9911499
			C707.7476807,847.512207,510.0057068,903.855957,329.0650635,849.1096802
			c-69.0769653-20.9003296-141.7389221-68.7476196-175.9056549-133.8967896
			C81.8843384,579.305481,150.6469421,424.137207,253.2411957,324.6960754
			C446.7163086,143.5746765,658.8390503,155.4431763,685.3624878,155.4431763z M284.0944519,362.1365662
			c101.4802246-103.6485901,258.0621033-164.2692108,403.0979919-158.6405487
			c61.0363159,2.3687439,135.774353,27.5835724,160.7183838,87.7197418
			c12.6862793,22.8876343,8.3671875,47.3705139,2.3256226,73.4494324
			c33.291626-49.8154907,15.4254761-116.8656616-35.0834961-148.2581635
			c-36.7473145-22.8393097-76.4193115-34.8778839-119.8857422-37.635437
			c-46.9165039-2.9764252-92.3221436-0.3367462-138.668335,10.0623474
			c-104.2197266,23.3847198-200.0055237,71.6257172-278.0874939,144.1603241
			c-44.8389435,41.6533203-80.9982605,88.5777588-104.4705658,144.7077637
			c-45.2684479,108.2518311-31.2690277,232.1536865,68.359024,303.331604
			c15.0103149,10.723877,27.6474915,24.355957,46.6951599,27.9956055
			c-28.9727783-22.0741577-51.0264282-43.4667969-69.2763824-72.293396
			C139.00383,609.0852051,184.2132568,464.151947,284.0944519,362.1365662z M250.3419952,510.7914734
			c23.7684479-65.7877808,69.0032806-119.9970398,125.3768158-160.5265503
			c89.4891968-64.3379517,197.1650391-98.4766998,307.1831665-98.583847
			c32.437561-0.0315857,62.4649048,5.7811737,90.9993286,17.8679352
			c14.4708252,6.1296692,26.1589966,15.3136597,37.0158691,25.4511108
			c19.0446167,17.7827148,25.0913696,39.5613098,23.7331543,67.2973022
			c15.1418457-39.533783-2.7918701-80.2419128-37.7277832-104.5564575
			c-34.2769775-23.8559418-75.6248779-34.0068359-119.0313721-33.27742
			C551.87677,226.581131,430.1446838,270.2549133,333.5898438,350.3108826
			c-59.0621948,48.9699402-107.8758698,119.1504517-121.8873444,195.1944885
			c-13.4228821,72.8495483,4.0806885,148.0183716,54.2668304,203.8153076
			c54.0321655,60.072937,132.005249,94.2685547,212.2912903,97.2627563
			c37.9152832,1.4140015,75.0137939,1.7379761,111.7714844-12.8244629
			c-72.5988159,6.7886963-140.1465759-0.0449829-205.8450012-26.284668
			C266.2785645,760.3821411,206.189682,632.9989014,250.3419952,510.7914734z M299.1072083,554.8670654
			c20.7425232-113.183136,119.3496094-186.7454834,219.6349182-224.9105225
			c70.0889282-26.6733398,184.1254272-47.4956055,253.0806885-16.6167297
			c31.7194214,14.2042847,44.8182373,45.8260803,38.7247925,80.3239136
			c20.6967163-26.2414246,12.1500244-61.9636536-9.0774536-83.6213684
			c-30.4857788-31.1036072-86.4059448-37.8889771-128.8056641-35.9564819
			c-109.3458252,4.9837646-215.2890015,43.6961975-300.2705383,112.3820801
			c-46.0348511,37.207428-79.1076355,84.4806519-96.2067566,140.1210327
			c-28.5484619,92.8964844,8.4169006,189.5953369,91.0338745,239.5748901
			c98.8231201,59.7836304,244.2520142,61.1629028,349.9264526,13.3458252
			c47.2609253-21.3853149,94.9473877-50.8122559,127.987854-93.1567993
			c-78.8344116,66.232666-166.739624,105.9805908-268.6118774,107.7772217
			c-55.2703857,0.9747314-107.109436-5.7868042-157.7609558-27.0897827
			C335.2566223,731.9194946,282.1837158,647.2114868,299.1072083,554.8670654z M798.0983887,696.1678467l-35.1601562,16.736084
			c-97.7821655,46.5438232-284.5682678,59.4456177-364.2171021-24.2634277
			c-42.7381287-44.916748-49.9789734-109.989563-27.6628418-167.1705322
			c17.8592529-45.7610779,50.0267029-81.1523438,87.3470764-112.7844238
			c41.2323914-34.9478149,87.8805237-54.710083,139.3208313-78.0152588
			c-40.791626,4.7104492-76.4436646,22.3470459-112.2877197,40.3964844
			c-42.5602417,21.4313965-78.3097534,51.0085144-108.5593262,87.5128784
			c-25.0514221,30.2314453-40.4072266,64.5482788-46.0036011,103.5905762
			c-9.919342,69.2009888,24.1987,134.4978027,85.3278503,168.6008911
			c42.7827759,23.8678589,89.3798828,34.0443115,138.9929504,37.2825928
			c76.3002319,4.9801636,141.2857666-5.257019,217.6598511-44.1166382
			c77.3546753-45.6535645,100.8995972-74.5964966,100.8995972-74.5964966S824.5640869,681.5090332,798.0983887,696.1678467z"/>
	</g>
</g>
</svg>
